<svg id="Capa_1" enable-background="new 0 0 24 24" height="24" viewBox="0 0 512 512" width="24" xmlns="http://www.w3.org/2000/svg"><g><circle cx="256" cy="75" r="75"/><path d="m481 452c0-33.062-26.821-59.971-60.762-59.971-.029 0-.044 0-.073 0-24.053 1.567-153.955 65.317-202.368 91.816l-51.445 28.155h254.648c33.091 0 60-26.909 60-60z"/><path d="m475.374 335.281c-45.572-36.445-59.237-77.822-69.374-129.611 0-30.745-24.924-55.67-55.67-55.67h-188.66c-30.745 0-55.67 24.924-55.67 55.67-9.833 50.233-22.491 92.119-69.376 129.612l-36.624 26.718h46c49.365 0 98.408-23.657 130.049-60.454l16.752 98.331c22.094 10.269 44.145 21.07 63.151 30.604 19.063-9.589 41.175-20.458 63.248-30.775l18.42-104.108c31.788 41.719 78.341 66.402 128.38 66.402h46z"/><path d="m91.835 392.029c-.029 0-.044 0-.073 0-33.941 0-60.762 26.909-60.762 59.971 0 33.091 26.909 60 60 60h7.998c3.115-1.626 127.029-66.299 123.915-64.675-54-26.48-115.296-54.267-131.078-55.296z"/></g></svg>
