<?xml version="1.0" standalone="no"?>
<!DOCTYPE svg PUBLIC "-//W3C//DTD SVG 20010904//EN"
 "http://www.w3.org/TR/2001/REC-SVG-20010904/DTD/svg10.dtd">
<svg version="1.0" xmlns="http://www.w3.org/2000/svg"
 width="300.000000pt" height="300.000000pt" viewBox="0 0 300.000000 300.000000"
 preserveAspectRatio="xMidYMid meet">
<metadata>
Created by potrace 1.11, written by Peter Selinger 2001-2013
</metadata>
<g transform="translate(0.000000,300.000000) scale(0.100000,-0.100000)"
fill="#000000" stroke="none">
<path d="M12 2988 c-17 -17 -17 -2959 0 -2976 17 -17 2959 -17 2976 0 17 17
17 2959 0 2976 -17 17 -2959 17 -2976 0z m2592 -384 c14 -14 16 -127 16 -1094
0 -677 -4 -1088 -10 -1104 l-10 -26 -1099 0 -1100 0 -15 22 c-14 20 -16 141
-16 1105 l0 1082 22 15 c20 14 142 16 1110 16 974 0 1088 -2 1102 -16z"/>
<path d="M762 2238 c-9 -9 -12 -187 -12 -739 0 -648 2 -729 16 -743 14 -14 95
-16 743 -16 692 0 729 1 744 18 16 17 17 83 17 740 0 642 -2 722 -16 736 -14
14 -95 16 -748 16 -556 0 -735 -3 -744 -12z m1082 -378 l26 -10 0 -348 c0
-257 -3 -351 -12 -360 -9 -9 -101 -12 -354 -12 l-343 0 -15 22 c-14 19 -16 70
-16 350 0 315 1 329 20 348 19 19 33 20 344 20 187 0 336 -4 350 -10z"/>
<path d="M1465 1500 c-10 -17 5 -30 33 -28 31 2 54 16 46 29 -7 12 -71 11 -79
-1z m65 -4 c0 -3 -4 -8 -10 -11 -5 -3 -10 -1 -10 4 0 6 5 11 10 11 6 0 10 -2
10 -4z"/>
</g>
</svg>
