<?xml version="1.0" standalone="no"?>
<!DOCTYPE svg PUBLIC "-//W3C//DTD SVG 20010904//EN"
  "http://www.w3.org/TR/2001/REC-SVG-20010904/DTD/svg10.dtd">
<svg width="35" height="35" viewBox="0 0 145 145" version="1.1" xmlns="http://www.w3.org/2000/svg">
  <g id="#0d1647ff">
    <path fill="#0d1647"
          d=" M 55.44 12.79 C 59.29 9.14 62.87 5.22 66.84 1.71 C 78.80 1.85 90.77 1.69 102.73 1.80 C 99.07 5.45 95.41 9.13 91.74 12.77 C 79.64 12.78 67.54 12.75 55.44 12.79 Z" />
    <path fill="#0d1647"
          d=" M 94.44 12.78 C 98.26 9.11 101.85 5.20 105.83 1.70 C 117.85 1.85 129.87 1.69 141.88 1.80 C 138.22 5.48 134.57 9.18 130.83 12.79 C 118.70 12.75 106.57 12.77 94.44 12.78 Z" />
    <path fill="#0d1647"
          d=" M 132.00 14.21 C 135.72 10.46 139.44 6.70 143.22 3.02 C 143.28 15.29 143.33 27.56 143.19 39.84 C 139.41 43.50 135.78 47.31 131.95 50.92 C 131.91 38.68 131.78 26.44 132.00 14.21 Z" />
    <path fill="#0d1647"
          d=" M 53.88 14.75 C 66.28 14.75 78.68 14.73 91.09 14.77 C 91.14 27.22 91.10 39.67 91.09 52.12 C 78.68 52.19 66.27 52.16 53.86 52.13 C 53.84 39.67 53.82 27.21 53.88 14.75 Z" />
    <path fill="#0d1647"
          d=" M 92.89 14.76 C 105.33 14.75 117.76 14.74 130.19 14.77 C 130.24 27.21 130.23 39.64 130.22 52.08 C 117.77 52.14 105.33 52.12 92.88 52.10 C 92.86 39.65 92.84 27.20 92.89 14.76 Z" />
    <path fill="#0d1647"
          d=" M 132.11 54.05 C 134.98 49.42 139.55 46.20 143.24 42.27 C 143.26 54.45 143.35 66.63 143.19 78.81 C 139.41 82.47 135.77 86.28 131.95 89.90 C 132.00 77.95 131.62 65.98 132.11 54.05 Z" />
    <path fill="#0d1647"
          d=" M 14.43 54.28 C 26.51 54.00 38.60 54.29 50.68 54.14 C 47.00 57.61 43.51 61.28 39.86 64.79 C 27.89 64.70 15.91 64.72 3.94 64.79 C 7.49 61.34 11.03 57.88 14.43 54.28 Z" />
    <path fill="#0d1647"
          d=" M 92.86 53.89 C 105.30 53.87 117.75 53.84 130.20 53.91 C 130.24 66.31 130.23 78.70 130.22 91.10 C 117.76 91.16 105.31 91.13 92.85 91.12 C 92.80 78.71 92.79 66.30 92.86 53.89 Z" />
    <path fill="#0d1647"
          d=" M 41.14 66.23 C 44.64 62.38 48.42 58.80 52.13 55.16 C 52.19 67.42 52.15 79.67 52.14 91.93 C 48.47 95.67 44.80 99.43 40.97 103.01 C 40.98 90.75 40.64 78.48 41.14 66.23 Z" />
    <path fill="#0d1647"
          d=" M 2.27 66.77 C 14.59 66.71 26.91 66.72 39.23 66.77 C 39.28 79.26 39.26 91.76 39.26 104.26 C 26.92 104.28 14.59 104.32 2.25 104.23 C 2.28 91.74 2.26 79.25 2.27 66.77 Z" />
    <path fill="#0d1647"
          d=" M 54.07 93.21 C 65.93 93.07 77.80 93.25 89.66 93.12 C 85.98 96.60 82.48 100.26 78.84 103.78 C 66.91 103.71 54.97 103.66 43.04 103.81 C 46.77 100.33 50.02 96.35 54.07 93.21 Z" />
    <path fill="#0d1647"
          d=" M 80.10 105.23 C 83.61 101.38 87.39 97.79 91.10 94.14 C 91.17 106.40 91.14 118.66 91.12 130.92 C 87.42 134.65 83.76 138.41 79.93 142.01 C 79.97 129.75 79.61 117.48 80.10 105.23 Z"/>
    <path fill="#0d1647"
          d=" M 1.73 106.03 C 14.21 106.08 26.68 105.98 39.15 106.09 C 39.16 118.47 39.17 130.85 39.13 143.23 C 26.67 143.30 14.20 143.27 1.73 143.24 C 1.70 130.84 1.70 118.44 1.73 106.03 Z" />
    <path fill="#0d1647"
          d=" M 41.24 105.74 C 53.56 105.70 65.89 105.68 78.21 105.75 C 78.25 118.24 78.23 130.73 78.22 143.22 C 65.89 143.29 53.55 143.28 41.22 143.23 C 41.25 130.73 41.23 118.23 41.24 105.74 Z" />
  </g>
</svg>
