<?xml version="1.0" standalone="no"?>
<!DOCTYPE svg PUBLIC "-//W3C//DTD SVG 20010904//EN"
  "http://www.w3.org/TR/2001/REC-SVG-20010904/DTD/svg10.dtd">
<svg width="145pt" height="145pt" viewBox="0 0 145 145" version="1.1" xmlns="http://www.w3.org/2000/svg">
  <g id="#2c4155ff">
    <path fill="#2c4155" opacity="1.00" d=" M 71.28 0.00 L 74.05 0.00 C 75.52 0.47 76.97 1.02 78.33 1.75 C 98.86 13.20 119.41 24.60 139.95 36.03 C 142.48 37.28 144.18 39.65 145.00 42.31 L 145.00 116.05 C 144.18 118.58 142.61 120.91 140.20 122.15 C 129.06 128.39 117.88 134.56 106.73 140.78 C 103.77 142.42 100.87 144.33 97.50 145.00 L 96.44 145.00 C 92.98 144.57 90.04 142.58 87.07 140.92 C 82.29 138.25 77.48 135.62 72.72 132.91 C 66.00 136.39 59.52 140.33 52.81 143.83 C 49.66 145.58 45.78 145.01 42.81 143.18 C 30.20 136.13 17.54 129.17 4.95 122.10 C 2.23 120.71 0.69 117.93 0.00 115.06 L 0.00 43.56 C 0.56 40.51 2.20 37.59 5.05 36.17 C 25.39 24.80 45.80 13.53 66.14 2.16 C 67.77 1.25 69.48 0.49 71.28 0.00 M 70.73 7.75 C 50.15 19.19 29.56 30.62 8.99 42.09 C 7.30 42.66 7.39 44.52 7.42 45.97 C 7.46 68.64 7.36 91.31 7.47 113.98 C 7.27 115.28 8.44 115.94 9.40 116.49 C 21.64 123.28 33.87 130.08 46.09 136.89 C 47.14 137.43 48.38 138.37 49.57 137.54 C 56.10 134.06 62.49 130.33 68.99 126.79 C 69.01 122.15 69.03 117.51 69.00 112.88 C 63.15 115.96 57.46 119.33 51.63 122.45 C 49.48 123.67 46.78 123.44 44.71 122.18 C 37.89 118.38 31.07 114.60 24.25 110.80 C 22.10 109.73 20.49 107.50 20.68 105.03 C 20.68 97.03 20.63 89.03 20.70 81.03 C 20.65 78.59 22.52 76.67 24.56 75.62 C 31.31 71.90 38.01 68.10 44.79 64.43 C 44.94 56.61 44.77 48.79 44.87 40.97 C 44.72 38.56 46.34 36.44 48.40 35.38 C 55.28 31.54 62.16 27.71 69.05 23.90 C 71.15 22.63 73.89 22.55 76.01 23.82 C 82.49 27.36 88.91 31.02 95.40 34.56 C 97.61 35.69 100.09 37.30 100.33 40.03 C 100.55 48.15 100.31 56.27 100.42 64.39 C 107.30 68.21 114.20 72.01 121.06 75.87 C 123.00 76.87 124.53 78.83 124.55 81.08 C 124.64 89.05 124.57 97.02 124.57 104.98 C 124.73 107.45 123.16 109.71 121.00 110.79 C 114.11 114.63 107.21 118.48 100.31 122.30 C 98.30 123.48 95.69 123.61 93.64 122.46 C 87.80 119.33 82.07 116.00 76.24 112.86 C 76.22 117.51 76.22 122.16 76.25 126.80 C 82.25 130.12 88.24 133.46 94.23 136.81 C 95.30 137.23 96.55 138.43 97.73 137.61 C 110.20 130.83 122.54 123.79 134.99 116.98 C 136.10 116.22 137.99 115.67 137.74 113.97 C 137.79 90.94 137.76 67.92 137.76 44.89 C 137.99 43.57 137.28 42.46 136.06 41.98 C 115.49 30.53 94.92 19.08 74.34 7.65 C 73.23 6.75 71.83 6.98 70.73 7.75 M 52.11 41.38 C 52.01 47.68 52.07 53.98 52.07 60.28 C 57.77 57.23 63.39 54.04 69.02 50.87 C 68.99 44.62 69.06 38.36 68.97 32.11 C 63.30 35.11 57.76 38.35 52.11 41.38 M 76.21 50.89 C 81.85 54.06 87.48 57.23 93.18 60.30 C 93.26 54.08 93.09 47.85 93.26 41.63 C 87.71 38.25 81.93 35.26 76.26 32.09 C 76.18 38.36 76.25 44.62 76.21 50.89 M 55.94 66.45 C 61.53 69.49 67.06 72.63 72.63 75.69 C 78.17 72.53 83.83 69.58 89.31 66.32 C 83.79 63.21 78.22 60.20 72.73 57.04 C 67.09 60.09 61.41 63.10 55.94 66.45 M 27.88 81.91 C 27.90 88.15 27.87 94.39 27.90 100.62 C 33.55 97.63 39.02 94.32 44.73 91.43 C 45.01 85.14 44.79 78.83 44.84 72.54 C 39.14 75.56 33.53 78.78 27.88 81.91 M 52.08 72.54 C 52.13 78.86 51.88 85.18 52.21 91.49 C 57.91 94.33 63.33 97.69 68.98 100.61 C 69.05 94.39 69.00 88.17 69.02 81.95 C 63.39 78.78 57.76 75.62 52.08 72.54 M 76.17 82.02 C 76.30 88.22 76.19 94.41 76.23 100.61 C 81.94 97.59 87.56 94.38 93.20 91.23 C 93.18 85.00 93.21 78.78 93.18 72.55 C 87.47 75.64 81.77 78.74 76.17 82.02 M 100.44 91.30 C 106.11 94.35 111.66 97.62 117.36 100.61 C 117.39 94.39 117.36 88.17 117.38 81.95 C 111.81 78.74 106.12 75.74 100.57 72.51 C 100.20 78.76 100.47 85.04 100.44 91.30 M 31.64 106.79 C 37.16 109.94 42.77 112.92 48.26 116.11 C 54.04 113.18 59.61 109.87 65.29 106.77 C 59.80 103.56 54.13 100.69 48.70 97.39 C 42.89 100.28 37.27 103.56 31.64 106.79 M 79.92 106.77 C 85.55 109.88 91.16 113.04 96.81 116.12 C 102.39 112.96 108.11 110.03 113.58 106.67 C 107.98 103.61 102.42 100.49 96.85 97.38 C 91.17 100.44 85.55 103.61 79.92 106.77 Z" />
  </g>
</svg>
