<?xml version="1.0" standalone="no"?>
<!DOCTYPE svg PUBLIC "-//W3C//DTD SVG 20010904//EN"
  "http://www.w3.org/TR/2001/REC-SVG-20010904/DTD/svg10.dtd">
<svg height="34.83" viewBox="0 0 34.83 34.83" width="34.83" xmlns="http://www.w3.org/2000/svg">
  <g fill="#569d7e">
    <path
      d="m26.25 34.83h-17.66a8.59 8.59 0 0 1 -8.59-8.58v-17.66a8.6 8.6 0 0 1 8.59-8.59h17.66a8.59 8.59 0 0 1 8.58 8.59v17.66a8.59 8.59 0 0 1 -8.58 8.58zm-17.66-31.83a5.6 5.6 0 0 0 -5.59 5.59v17.66a5.59 5.59 0 0 0 5.59 5.58h17.66a5.58 5.58 0 0 0 5.58-5.58v-17.66a5.59 5.59 0 0 0 -5.58-5.59z" />
    <path
      d="m26.19 29h-17.55a2.81 2.81 0 0 1 -2.81-2.81v-17.55a2.81 2.81 0 0 1 2.81-2.81h17.55a2.81 2.81 0 0 1 2.81 2.81v17.55a2.81 2.81 0 0 1 -2.81 2.81zm-17.55-20.67a.31.31 0 0 0 -.31.31v17.55a.31.31 0 0 0 .31.31h17.55a.31.31 0 0 0 .31-.31v-17.55a.31.31 0 0 0 -.31-.31z" />
    <path d="m23.67 23.67h-12.5v-12.5h12.5zm-10.5-2h8.5v-8.5h-8.5z" />
  </g>
</svg>
